<?xml version="1.0" standalone="no"?>
<!DOCTYPE svg PUBLIC "-//W3C//DTD SVG 20010904//EN"
 "http://www.w3.org/TR/2001/REC-SVG-20010904/DTD/svg10.dtd">
<svg version="1.0" xmlns="http://www.w3.org/2000/svg"
 width="267.000000pt" height="171.000000pt" viewBox="0 0 267.000000 171.000000"
 preserveAspectRatio="xMidYMid meet">
<metadata>
Created by potrace 1.10, written by Peter Selinger 2001-2011
</metadata>
<g transform="translate(0.000000,171.000000) scale(0.100000,-0.100000)"
fill="#000000" stroke="none">
<path d="M357 1602 l-318 -2 3 -27 c2 -22 9 -28 31 -30 42 -3 88 -34 125 -84
18 -24 83 -159 143 -299 60 -140 113 -264 118 -275 6 -11 19 -42 31 -70 12
-27 25 -59 30 -70 5 -11 18 -42 30 -70 25 -58 29 -68 69 -158 17 -38 31 -72
31 -77 0 -5 6 -21 14 -37 22 -42 66 -143 66 -149 0 -3 6 -20 14 -37 8 -18 28
-62 45 -99 l30 -68 46 0 c38 0 45 3 45 20 0 10 6 34 14 52 14 33 19 46 76 198
17 47 38 99 45 115 7 17 20 53 30 80 10 28 23 64 30 80 64 153 177 482 176
514 -1 14 6 36 15 49 22 33 15 115 -14 170 l-22 42 150 0 151 0 -23 -32 c-13
-18 -27 -36 -33 -40 -15 -11 -21 -548 -6 -548 6 0 11 -7 11 -15 0 -8 5 -15 10
-15 15 0 12 -19 -6 -37 -8 -9 -13 -24 -11 -34 3 -13 0 -16 -11 -12 -10 4 -13
2 -8 -5 4 -7 7 -108 7 -226 l1 -214 33 -51 34 -51 -137 -1 c-179 -2 -193 1
-159 25 9 7 17 18 17 25 0 6 4 11 9 11 6 0 10 8 10 18 0 9 4 40 9 67 4 28 7
194 6 370 -3 475 -1 442 -19 419 -12 -16 -14 -82 -15 -411 0 -368 -1 -394 -20
-438 -16 -38 -28 -50 -65 -66 -25 -11 -56 -19 -68 -17 -17 2 -22 -2 -22 -20
l0 -23 298 -2 297 -2 0 23 c0 17 -6 22 -27 22 -15 0 -46 9 -69 20 -68 33 -74
60 -74 319 l0 220 35 37 c21 22 39 34 44 28 12 -14 226 -307 295 -404 66 -94
105 -178 106 -227 l0 -33 228 0 c125 0 237 -3 250 -6 19 -5 22 -2 22 20 0 21
-5 26 -24 26 -33 0 -129 52 -170 92 -37 37 -147 186 -306 417 -58 84 -131 188
-162 232 -32 44 -58 82 -58 85 0 9 50 64 215 239 78 83 154 164 169 182 86
102 251 194 372 208 30 3 33 5 36 34 l3 22 -245 0 -245 1 0 -29 c0 -23 4 -27
21 -25 11 1 33 -2 47 -7 23 -9 27 -16 27 -48 -1 -49 -22 -76 -255 -333 -27
-30 -69 -75 -91 -100 -23 -25 -98 -107 -168 -184 -69 -76 -126 -143 -126 -147
0 -5 -4 -9 -10 -9 -6 0 -10 93 -10 260 0 280 5 311 52 350 13 11 44 22 71 26
41 6 47 10 47 30 l0 24 -297 -2 c-289 -3 -298 -4 -298 -23 0 -15 9 -21 43 -27
59 -10 96 -39 116 -93 17 -42 17 -48 2 -79 -9 -19 -16 -41 -16 -49 0 -9 -4
-18 -9 -21 -5 -3 -11 -16 -14 -28 -3 -13 -35 -99 -71 -193 -37 -93 -76 -197
-88 -230 -11 -33 -24 -64 -29 -70 -5 -5 -9 -15 -9 -23 0 -8 -6 -28 -14 -45 -8
-18 -20 -50 -27 -72 -6 -22 -19 -50 -27 -63 -10 -16 -11 -22 -2 -22 8 0 10 -7
5 -17 -4 -10 -9 -29 -11 -43 -3 -14 -14 -43 -24 -66 -11 -22 -20 -47 -20 -55
0 -9 -3 -19 -7 -23 -5 -4 -8 -11 -9 -14 -5 -41 -44 -82 -44 -47 0 9 -6 12 -16
8 -11 -4 -15 -1 -13 13 2 10 -5 37 -15 59 -10 22 -26 58 -36 80 -10 22 -33 72
-51 110 -18 39 -32 78 -31 88 0 9 -3 15 -7 13 -4 -3 -18 23 -31 57 -22 59 -45
113 -95 222 -12 28 -32 71 -44 98 -11 26 -21 54 -21 63 0 8 -4 13 -8 10 -5 -3
-6 9 -4 26 3 21 1 29 -7 24 -6 -4 -14 0 -17 11 -8 26 -43 111 -65 160 -11 23
-19 47 -19 52 0 6 -9 28 -21 50 -11 22 -18 45 -15 50 4 5 -3 12 -14 16 -11 3
-20 13 -20 21 0 8 -11 37 -25 64 -14 27 -25 56 -25 64 0 8 -8 17 -18 20 -11 4
-25 18 -32 31 -7 14 -19 25 -27 25 -7 0 -13 4 -13 9 0 5 84 9 190 10 116 0
190 -3 190 -9 0 -6 -4 -10 -10 -10 -6 0 -9 -6 -8 -12 2 -7 -1 -12 -7 -11 -17
3 -11 -128 8 -169 9 -21 23 -53 31 -70 8 -18 26 -59 40 -92 14 -32 26 -67 26
-77 0 -10 5 -21 10 -24 6 -3 10 -14 10 -23 0 -9 11 -39 24 -67 14 -27 36 -77
51 -110 15 -33 39 -87 55 -120 45 -96 110 -255 110 -269 0 -7 9 -25 20 -39 11
-14 20 -32 20 -41 0 -9 7 -16 15 -16 29 0 15 47 -71 237 -8 17 -14 37 -14 45
0 8 -4 18 -9 23 -5 6 -63 141 -130 300 -67 160 -126 299 -131 310 -42 93 -50
147 -30 186 13 24 74 50 109 47 21 -2 27 2 29 21 2 13 0 26 -5 30 -4 3 -151 5
-326 3z m1974 -44 c0 -10 2 -10 6 0 6 15 39 16 49 1 11 -18 -47 -59 -75 -52
-14 4 -22 2 -18 -4 8 -13 -26 -40 -43 -35 -9 3 -11 -1 -7 -11 4 -11 2 -14 -9
-10 -16 6 -19 23 -4 23 6 0 10 7 10 15 0 8 -4 15 -10 15 -5 0 -7 6 -4 13 3 8
-2 20 -10 27 -26 20 -8 30 55 30 40 0 59 -4 60 -12z m-565 -672 c8 -8 14 -17
14 -20 0 -8 94 -141 102 -144 4 -2 8 -10 8 -18 0 -8 5 -14 10 -14 6 0 10 -8 8
-17 -2 -12 3 -18 15 -17 13 1 16 -3 12 -16 -3 -11 0 -20 10 -24 8 -3 15 -12
15 -21 0 -8 4 -15 8 -15 8 0 82 -95 82 -105 0 -3 9 -15 20 -27 11 -12 26 -34
32 -50 7 -15 16 -28 20 -28 5 0 8 -6 8 -14 0 -8 3 -16 8 -18 11 -5 89 -101 92
-113 3 -18 73 -94 84 -92 6 1 10 -3 9 -9 -1 -7 10 -16 25 -20 25 -7 24 -8 -18
-14 -25 -3 -57 -3 -73 0 -15 3 -67 3 -116 0 l-88 -5 -13 45 c-15 53 -59 144
-71 148 -5 2 -9 9 -9 15 0 7 -10 23 -23 37 -13 14 -32 40 -42 58 -11 17 -23
32 -28 32 -4 0 -6 4 -3 9 3 5 -5 20 -19 32 -13 13 -25 30 -25 37 0 7 -7 15
-15 18 -8 4 -15 12 -15 19 0 7 -10 23 -23 36 -36 37 -67 86 -60 93 3 3 1 6 -6
6 -18 0 -43 28 -36 40 3 5 0 10 -8 10 -40 0 -37 67 2 77 11 3 22 12 25 20 3 8
10 11 16 8 5 -3 10 -2 10 4 0 5 -6 12 -12 14 -8 4 -4 8 9 12 12 4 25 16 28 26
8 23 12 23 31 5z"/>
</g>
</svg>
