<svg version="1.1" id="Layer_1" xmlns="http://www.w3.org/2000/svg" xmlns:xlink="http://www.w3.org/1999/xlink" x="0px" y="0px"
	 width="100%" viewBox="0 0 267 171" enable-background="new 0 0 267 171" xml:space="preserve">
<path fill="#000000" opacity="1.000000" stroke="none" 
	d="
M1.000000,60.000000 
	C1.000000,40.000004 1.000000,20.500010 1.000000,1.000010 
	C89.999969,1.000007 178.999939,1.000007 267.999939,1.000003 
	C267.999939,57.999958 267.999939,114.999916 267.999969,171.999908 
	C179.000061,171.999939 90.000122,171.999939 1.000091,171.999969 
	C1.000000,134.833328 1.000000,97.666664 1.000000,60.000000 
M34.029804,53.667564 
	C34.687225,54.434525 35.344646,55.201485 35.988194,56.777908 
	C37.174286,59.951687 38.225384,63.183964 39.570835,66.288681 
	C44.312813,77.231102 49.155762,88.129761 53.945095,98.991394 
	C53.945095,98.991394 53.913429,99.037308 53.672504,99.624344 
	C55.435818,103.099983 57.199131,106.575615 58.973362,109.995094 
	C58.973362,109.995094 58.944103,110.047394 59.050732,110.795509 
	C62.326153,119.481476 65.375389,128.261505 68.937737,136.828156 
	C72.855286,146.248993 77.095642,155.546417 81.572464,164.713440 
	C82.339020,166.283112 84.991478,167.779480 86.775047,167.782181 
	C88.830933,167.785309 92.153839,166.587708 92.750061,165.061356 
	C98.377823,150.654251 103.555809,136.071045 108.834145,121.527977 
	C114.592339,105.662834 120.319389,89.786385 126.738243,74.333977 
	C127.158203,76.379448 127.963554,78.429771 127.937813,80.469620 
	C127.708817,98.616730 127.268181,116.761215 127.053490,134.908401 
	C127.009209,138.651505 127.645615,142.402634 128.012848,146.757767 
	C128.068069,147.159760 128.123306,147.561768 128.100830,148.678543 
	C127.562515,155.714706 123.778717,160.061737 116.230293,162.010269 
	C112.441780,161.586212 110.435478,162.973755 111.478729,167.833252 
	C131.529785,167.833252 151.580826,167.833252 172.335510,167.833252 
	C171.517944,166.056564 170.870865,164.650391 169.475067,162.900116 
	C162.652298,162.518021 157.851562,159.427505 155.786682,151.842331 
	C155.527756,146.121628 155.020172,140.398987 155.065094,134.680664 
	C155.142639,124.807213 155.563431,114.936440 156.487457,104.836182 
	C157.981339,103.602226 159.475220,102.368271 161.269821,100.885910 
	C167.362930,108.475800 173.204163,115.751961 179.066589,123.618919 
	C179.368637,124.092766 179.670685,124.566620 179.992981,124.992119 
	C179.992981,124.992119 179.944870,125.012985 179.973282,125.730347 
	C181.240128,127.796478 182.362823,129.971802 183.819183,131.894363 
	C184.993378,133.444427 186.570511,134.689240 187.996338,136.011124 
	C187.996338,136.011124 187.933884,136.027206 187.996994,136.696213 
	C188.989792,137.814667 189.982574,138.933121 190.991669,139.995865 
	C190.991669,139.995865 190.939285,140.020813 190.981491,140.693893 
	C191.647644,141.554169 192.313797,142.414444 193.185883,143.598984 
	C193.358444,143.800217 193.572968,143.934296 193.917419,144.741089 
	C194.600586,145.981903 195.283737,147.222717 196.102417,148.711487 
	C196.221893,148.866150 196.375290,148.971375 196.802567,149.776031 
	C198.207779,155.482254 199.613007,161.188477 201.279572,167.748962 
	C218.456070,167.748962 235.632553,167.748962 253.925339,167.748962 
	C252.642700,165.657578 251.779724,164.250443 250.414566,162.281998 
	C248.611679,162.291702 246.808792,162.301407 244.401443,161.911087 
	C243.268127,161.616486 242.134811,161.321884 241.008118,160.993927 
	C241.008118,160.993927 240.974670,161.000153 240.960114,160.279022 
	C237.998352,158.173859 235.036606,156.068680 232.051132,153.946838 
	C232.051132,153.946838 232.036377,153.921890 232.101624,153.209351 
	C229.864609,150.657135 227.627594,148.104919 225.246521,144.870132 
	C219.356949,136.191620 213.573486,127.438698 207.551651,118.852943 
	C199.536102,107.424614 191.334991,96.126434 182.915619,84.341232 
	C182.633850,84.135300 182.352066,83.929367 181.756409,83.246399 
	C181.220596,82.486191 180.684784,81.725983 180.152222,80.329727 
	C180.409256,79.526176 180.666306,78.722618 181.512558,77.611847 
	C191.452560,67.538948 201.413788,57.486759 211.293839,47.355392 
	C212.120193,46.507999 212.399704,45.127350 213.562042,43.750710 
	C217.543900,40.067123 221.496201,36.350952 225.513580,32.706535 
	C234.787857,24.293253 245.398819,18.790024 258.570282,17.802223 
	C258.841431,17.600576 259.008362,17.333742 259.006134,17.002161 
	C259.006134,17.002161 259.023132,17.064867 259.657318,16.753164 
	C261.899170,14.830211 261.587097,13.235690 259.011108,11.990235 
	C259.011108,11.990235 259.075958,11.975774 258.670044,11.191638 
	C243.363998,11.127359 228.057983,11.060768 212.751923,11.000421 
	C208.895340,10.985215 208.885941,13.062926 210.337173,16.564100 
	C211.477173,17.052847 212.577911,17.814627 213.763672,17.985153 
	C220.460861,18.948275 221.895874,21.919682 217.978989,27.620016 
	C214.834259,32.196617 211.327484,36.524426 207.366135,41.229507 
	C196.967300,53.138298 186.568481,65.047089 175.539078,77.228233 
	C169.166473,83.833389 162.793869,90.438538 156.025742,96.176483 
	C155.977676,80.464355 155.929611,64.752228 156.059891,48.345287 
	C155.982071,46.591591 155.904251,44.837898 156.391846,42.704739 
	C158.334671,40.855671 160.277512,39.006603 162.474075,37.134903 
	C162.474075,37.134903 162.729889,37.116783 163.273743,37.636421 
	C164.835526,37.405952 166.392792,37.137291 167.959946,36.952431 
	C172.076599,36.466812 173.086365,34.507454 170.575317,30.145504 
	C151.670471,30.095613 132.765610,30.029974 113.860802,30.043024 
	C112.929558,30.043667 111.998787,30.731052 110.971840,31.876314 
	C111.026146,32.927311 111.080452,33.978310 111.294266,35.656368 
	C114.212837,36.121395 117.131416,36.586422 120.627525,37.286953 
	C121.411804,37.534958 122.196075,37.782959 123.320328,38.619846 
	C124.866577,41.791157 126.412827,44.962467 127.271706,48.297104 
	C127.497208,49.505421 127.722717,50.713737 127.909264,52.667076 
	C119.918892,73.210014 111.915657,93.747971 103.950134,114.300537 
	C102.531227,117.961586 101.361221,121.720497 99.895287,125.361336 
	C99.154816,127.200378 98.009422,128.876373 96.987938,130.140976 
	C96.727020,129.744629 96.466103,129.348282 96.059402,128.248886 
	C95.359375,126.492599 94.659348,124.736305 93.928886,122.257156 
	C92.330742,119.199043 90.456200,116.251373 89.182518,113.063614 
	C83.804207,99.602959 78.899414,85.946304 73.258293,72.599342 
	C67.474876,58.915680 61.035088,45.509426 54.957081,31.101223 
	C55.142681,21.001955 56.695633,19.183739 66.499435,18.006908 
	C71.050957,17.460550 70.265877,14.916741 68.625854,11.236480 
	C47.713879,11.154305 26.801912,11.062786 5.889864,11.035912 
	C5.274333,11.035120 4.657928,11.715186 4.074334,12.651184 
	C4.416665,13.117832 4.758995,13.584479 5.014711,14.599039 
	C4.986626,14.967753 4.958541,15.336467 4.492087,16.147741 
	C5.610316,16.388645 6.728545,16.629549 8.375471,16.952501 
	C8.552922,16.970301 8.730374,16.988098 9.180646,17.650812 
	C11.408496,18.703756 13.636345,19.756701 16.526567,20.984098 
	C17.655367,21.683506 18.784166,22.382915 20.000385,23.007965 
	C20.000385,23.007965 19.914120,23.087852 20.037907,23.737629 
	C20.960972,24.843035 21.884037,25.948439 23.167048,27.685278 
	C24.482712,30.134611 25.798374,32.583942 27.190680,35.753014 
	C27.868782,37.845398 28.546885,39.937786 29.064978,42.718807 
	C29.643963,43.871605 30.222946,45.024399 30.967493,46.860550 
	C31.967758,48.609352 32.968025,50.358158 34.025547,52.563374 
	C34.025547,52.563374 34.077801,53.020386 34.029804,53.667564 
z"/>
<path fill="#09094F" opacity="1.000000" stroke="none" 
	d="
M54.882572,31.981760 
	C61.035088,45.509426 67.474876,58.915680 73.258293,72.599342 
	C78.899414,85.946304 83.804207,99.602959 89.182518,113.063614 
	C90.456200,116.251373 92.330742,119.199043 93.718018,122.871460 
	C94.406487,125.307823 95.305832,127.129883 96.205177,128.951935 
	C96.466103,129.348282 96.727020,129.744629 97.194992,130.687592 
	C98.375923,131.748505 99.349808,132.262817 99.700714,132.448135 
	C98.751381,135.815445 98.239418,138.991302 96.972397,141.830185 
	C94.646408,147.041718 91.419296,151.779587 91.731918,158.003357 
	C91.821938,159.795410 89.195549,161.723938 87.814590,163.589905 
	C86.221870,161.718323 84.441284,159.970795 83.096985,157.935165 
	C82.057251,156.360703 81.940453,154.102615 80.751587,152.715729 
	C78.019821,149.528915 75.082993,146.645432 75.832199,141.869736 
	C75.957863,141.068741 75.075035,140.109436 74.657928,139.223404 
	C73.043808,135.794571 71.346970,132.401779 69.834427,128.928696 
	C67.469322,123.497993 65.374054,117.943680 62.824211,112.604210 
	C62.252613,111.407265 60.274624,110.881927 58.944103,110.047394 
	C58.944103,110.047394 58.973362,109.995094 58.989983,109.599678 
	C58.648949,105.143967 59.373951,100.541306 53.913429,99.037308 
	C53.913429,99.037308 53.945095,98.991394 53.969830,98.577301 
	C54.126789,86.932625 45.999100,78.612740 43.442753,68.308075 
	C42.673885,65.208778 41.002956,62.344135 39.967125,59.296589 
	C39.201973,57.045410 39.579197,54.094971 35.990356,53.655411 
	C35.347889,52.515781 34.722351,51.713390 34.083206,50.592056 
	C34.037331,49.848709 34.005066,49.424301 33.982258,48.746185 
	C33.998581,48.323318 34.005447,48.154152 34.373825,48.006298 
	C36.529175,48.898041 38.323009,49.768475 40.592056,50.869499 
	C40.592056,47.416897 40.592056,44.644398 40.592056,41.634384 
	C38.419048,42.554749 36.677761,43.292259 34.659264,43.868641 
	C33.246918,43.166420 32.111778,42.625332 30.963928,42.066597 
	C30.951216,42.048950 30.912514,42.027855 30.916267,41.704277 
	C30.579062,39.899292 30.238106,38.417881 30.276817,36.958176 
	C32.191048,37.667068 33.725609,38.354252 34.987923,38.919521 
	C34.987923,33.844666 35.070053,28.485348 34.957767,23.130106 
	C34.888077,19.806416 30.895824,16.346601 27.946363,17.167393 
	C25.091602,17.961828 23.188431,19.674980 24.569279,23.026636 
	C22.736301,23.045275 21.325211,23.066563 19.914120,23.087852 
	C19.914120,23.087852 20.000385,23.007965 19.979385,22.657778 
	C20.386831,19.112871 19.260466,17.779175 16.012863,18.652332 
	C16.706259,16.473942 17.386478,14.643481 18.506830,12.680756 
	C22.941727,12.631203 26.936491,12.713916 30.989885,13.110325 
	C34.784573,17.089436 35.899311,16.989054 38.373405,12.668474 
	C39.110611,12.535604 39.545216,12.525925 40.100872,12.795591 
	C41.149303,13.387684 42.076687,13.700432 42.921738,14.342943 
	C40.781727,17.143007 40.698544,19.229607 44.327126,19.873814 
	C46.494671,20.258633 48.780109,19.979435 51.078335,20.382471 
	C52.390270,24.504734 53.636421,28.243246 54.882572,31.981760 
M45.764629,65.851204 
	C46.775570,68.490868 47.668438,71.185791 48.863689,73.739182 
	C49.263550,74.593399 50.435516,75.086182 51.254547,75.744179 
	C51.827309,74.861626 52.813152,74.019630 52.904434,73.089806 
	C53.419197,67.846466 53.220398,62.671513 48.847214,58.859924 
	C47.671097,57.834839 45.995529,57.382786 44.549232,56.667683 
	C44.179928,58.348022 43.466805,60.047142 43.557236,61.702366 
	C43.621944,62.886784 44.763546,64.012367 45.764629,65.851204 
M93.003418,133.868561 
	C91.285515,132.804718 89.675949,131.609390 88.146484,134.286453 
	C85.943069,138.143204 86.983757,141.111633 90.106796,143.737778 
	C95.554581,140.688873 96.140648,139.062241 93.003418,133.868561 
z"/>
<path fill="#100F4A" opacity="1.000000" stroke="none" 
	d="
M179.045395,123.028114 
	C173.204163,115.751961 167.362930,108.475800 161.269821,100.885910 
	C159.475220,102.368271 157.981339,103.602226 155.890625,105.218979 
	C154.818878,106.963104 153.940231,108.321945 153.931854,109.686127 
	C153.852356,122.639847 153.865692,135.595154 154.026596,148.547836 
	C154.043777,149.931534 155.170609,151.301468 155.782684,152.677780 
	C157.851562,159.427505 162.652298,162.518021 169.870590,163.484619 
	C169.067520,165.041397 167.905609,166.791885 166.663940,166.850433 
	C161.445877,167.096451 156.203949,166.836578 151.095245,166.449951 
	C156.897110,162.914566 157.052002,161.714066 152.895248,156.378555 
	C151.721146,154.871521 150.299850,153.096222 150.141251,151.340179 
	C149.516861,144.426926 149.210709,137.475067 149.075043,130.531891 
	C149.010773,127.241745 149.611771,123.940102 149.884628,120.641457 
	C150.174835,117.133232 150.374557,113.616501 150.725098,110.114616 
	C150.988373,107.484375 152.484589,104.424683 151.599152,102.331444 
	C148.377899,94.716209 148.148102,87.239578 150.507278,79.466309 
	C150.762100,78.626671 150.291779,77.510826 150.002792,76.570763 
	C146.344833,64.671059 151.258835,53.141022 151.569931,41.413250 
	C151.590683,40.631565 152.747589,39.869308 153.398438,39.117382 
	C154.592728,37.737606 155.803711,36.372272 157.312164,34.933052 
	C158.074829,34.238010 158.533096,33.610836 158.987427,32.756989 
	C158.974991,32.228077 158.973801,31.925814 159.341843,31.488964 
	C162.757614,31.375292 165.811478,31.396179 168.962479,31.740198 
	C168.596848,33.059090 168.372482,34.595997 167.617538,34.928604 
	C166.365509,35.480206 164.772247,35.257206 163.107788,35.131905 
	C162.371323,34.975945 161.849792,35.048592 161.328262,35.121239 
	C161.625626,35.800003 161.922989,36.478771 162.220352,37.157539 
	C160.277512,39.006603 158.334671,40.855671 155.813202,43.107338 
	C154.945312,45.388836 154.656067,47.267727 154.277679,49.598209 
	C154.199265,64.678474 154.209991,79.307159 154.110764,94.213776 
	C154.066208,94.679939 154.131607,94.868164 154.150818,95.364853 
	C154.135376,96.086319 154.166138,96.499313 154.116806,97.274368 
	C154.563553,97.995667 155.090408,98.354912 155.617249,98.714149 
	C155.732483,98.135483 155.847733,97.556808 156.092407,96.890594 
	C156.221832,96.803040 156.421265,97.043686 156.421265,97.043686 
	C162.793869,90.438538 169.166473,83.833389 176.194000,77.145889 
	C178.207047,77.348717 179.565201,77.633888 180.923340,77.919067 
	C180.666306,78.722618 180.409256,79.526176 179.770813,80.604317 
	C177.240021,80.237671 175.630569,79.589035 174.768234,83.008392 
	C173.962692,86.202522 171.648788,89.016258 169.685989,92.145676 
	C168.246353,93.861702 167.119522,95.429474 165.778442,97.191940 
	C165.376144,97.924423 165.188080,98.462212 165.079544,99.329620 
	C166.493454,101.524200 167.807785,103.403900 169.166870,105.250656 
	C171.200333,108.013733 173.099487,110.900490 175.366165,113.459724 
	C177.396210,115.751793 180.463531,117.301712 181.982239,119.833488 
	C185.185333,125.173210 188.470001,130.229950 194.004135,133.458618 
	C194.790497,133.917374 195.508728,134.817444 195.843414,135.675217 
	C198.896957,143.500900 202.116776,151.277969 204.725784,159.253189 
	C205.842575,162.667023 207.461151,163.143829 210.560104,162.721893 
	C213.628281,162.304153 216.780838,162.478592 219.896912,162.447510 
	C223.363861,162.412933 226.831406,162.439590 230.693542,162.439590 
	C229.928848,160.082993 229.635864,158.450317 228.883926,157.067154 
	C228.126373,155.673676 226.585190,154.665497 225.986298,153.237335 
	C225.313690,151.633392 225.311752,149.748184 225.308105,148.164658 
	C227.744232,150.203278 229.890305,152.062592 232.036377,153.921890 
	C232.036377,153.921890 232.051132,153.946838 232.101990,154.313171 
	C233.515137,158.989273 236.271317,161.353561 240.974670,161.000153 
	C240.974670,161.000153 241.008118,160.993927 241.070526,161.371429 
	C241.415833,163.432556 241.698746,165.116196 241.517426,166.857513 
	C229.048737,166.902740 217.044266,166.890305 204.943832,166.528137 
	C203.864227,163.205170 203.172958,160.089920 201.816498,157.297836 
	C200.398499,154.378998 198.340698,151.771011 196.562576,149.027145 
	C196.375290,148.971375 196.221893,148.866150 196.096664,148.174347 
	C195.337082,146.425217 194.583267,145.213226 193.829453,144.001221 
	C193.572968,143.934296 193.358444,143.800217 193.103745,143.061722 
	C192.327499,141.689911 191.633392,140.855362 190.939285,140.020813 
	C190.939285,140.020813 190.991669,139.995865 190.958466,139.672913 
	C189.928131,138.242386 188.931000,137.134796 187.933884,136.027206 
	C187.933884,136.027206 187.996338,136.011124 187.961609,135.668396 
	C186.407761,131.004547 184.787369,126.761810 179.944870,125.012985 
	C179.944870,125.012985 179.992981,124.992119 179.969772,124.725143 
	C179.646179,123.981483 179.345795,123.504799 179.045395,123.028114 
M165.473969,33.495113 
	C165.473969,33.495113 165.505219,33.522778 165.473969,33.495113 
z"/>
<path fill="#17164D" opacity="1.000000" stroke="none" 
	d="
M58.997417,110.421448 
	C60.274624,110.881927 62.252613,111.407265 62.824211,112.604210 
	C65.374054,117.943680 67.469322,123.497993 69.834427,128.928696 
	C71.346970,132.401779 73.043808,135.794571 74.657928,139.223404 
	C75.075035,140.109436 75.957863,141.068741 75.832199,141.869736 
	C75.082993,146.645432 78.019821,149.528915 80.751587,152.715729 
	C81.940453,154.102615 82.057251,156.360703 83.096985,157.935165 
	C84.441284,159.970795 86.221870,161.718323 87.814590,163.589905 
	C89.195549,161.723938 91.821938,159.795410 91.731918,158.003357 
	C91.419296,151.779587 94.646408,147.041718 96.972397,141.830185 
	C98.239418,138.991302 98.751381,135.815445 99.700714,132.448135 
	C99.349808,132.262817 98.375923,131.748505 97.224579,130.930145 
	C98.009422,128.876373 99.154816,127.200378 99.895287,125.361336 
	C101.361221,121.720497 102.531227,117.961586 103.950134,114.300537 
	C111.915657,93.747971 119.918892,73.210014 127.946121,51.915318 
	C127.975014,50.153629 127.967049,49.143703 127.959076,48.133774 
	C126.412827,44.962467 124.866577,41.791157 123.271088,38.069218 
	C123.491844,37.022560 123.761833,36.526531 124.413170,36.029411 
	C126.924072,37.739403 130.072662,39.033035 130.978897,41.245251 
	C133.108841,46.444691 132.393875,51.933388 129.629379,56.949425 
	C127.664375,60.514828 127.067406,63.972652 129.391403,67.655983 
	C129.955246,68.549622 129.846024,69.867905 129.844070,70.999191 
	C129.641861,71.007454 129.237106,71.008286 128.995010,70.697174 
	C124.415421,68.937302 126.506668,72.394447 126.060013,73.914864 
	C120.319389,89.786385 114.592339,105.662834 108.834145,121.527977 
	C103.555809,136.071045 98.377823,150.654251 92.750061,165.061356 
	C92.153839,166.587708 88.830933,167.785309 86.775047,167.782181 
	C84.991478,167.779480 82.339020,166.283112 81.572464,164.713440 
	C77.095642,155.546417 72.855286,146.248993 68.937737,136.828156 
	C65.375389,128.261505 62.326153,119.481476 58.997417,110.421448 
z"/>
<path fill="#1B1A4F" opacity="1.000000" stroke="none" 
	d="
M207.981354,40.962635 
	C211.327484,36.524426 214.834259,32.196617 217.978989,27.620016 
	C221.895874,21.919682 220.460861,18.948275 213.763672,17.985153 
	C212.577911,17.814627 211.477173,17.052847 210.459320,15.886291 
	C210.492935,12.094756 212.493195,12.032383 214.862686,12.037769 
	C229.600311,12.071270 244.338181,12.007371 259.075958,11.975774 
	C259.075958,11.975774 259.011108,11.990235 258.831696,12.359634 
	C258.775909,14.174313 258.899506,15.619590 259.023132,17.064867 
	C259.023132,17.064867 259.006134,17.002161 258.760681,16.956589 
	C258.376831,17.242596 258.238403,17.574177 258.100006,17.905758 
	C245.398819,18.790024 234.787857,24.293253 225.513580,32.706535 
	C221.496201,36.350952 217.543900,40.067123 212.853241,43.886528 
	C209.910156,44.154346 207.878723,44.010315 207.981354,40.962635 
M232.507080,13.982985 
	C228.279755,13.982985 224.052444,13.982985 219.160065,13.982985 
	C223.213409,20.610207 228.562637,22.148203 234.585739,20.737495 
	C238.824295,19.744762 244.117432,20.120777 247.333771,13.982917 
	C241.995758,13.982917 237.745010,13.982917 232.507080,13.982985 
z"/>
<path fill="#100F4A" opacity="1.000000" stroke="none" 
	d="
M117.073105,161.987839 
	C123.778717,160.061737 127.562515,155.714706 128.391235,148.268127 
	C128.760895,147.224167 128.840149,146.590622 128.966309,145.493164 
	C129.088699,130.673492 129.164230,116.317719 129.626312,102.014099 
	C130.672470,103.230148 131.868729,104.375549 131.909576,105.560783 
	C132.373444,119.013893 132.794418,132.471909 132.914688,145.931396 
	C132.951416,150.040558 133.330124,154.465286 129.704483,157.795914 
	C128.894653,158.539841 128.830078,160.094986 128.254074,161.764511 
	C133.759232,162.210114 138.692474,162.629761 143.629379,163.000732 
	C146.197220,163.193649 148.794174,163.268005 148.574631,166.836639 
	C136.419388,166.868561 124.730278,166.828140 113.060738,166.440536 
	C114.411240,164.724869 115.742172,163.356354 117.073105,161.987839 
z"/>
<path fill="#272754" opacity="1.000000" stroke="none" 
	d="
M207.673737,41.096069 
	C207.878723,44.010315 209.910156,44.154346 212.538864,44.008400 
	C212.399704,45.127350 212.120193,46.507999 211.293839,47.355392 
	C201.413788,57.486759 191.452560,67.538948 181.217957,77.765457 
	C179.565201,77.633888 178.207047,77.348717 176.509277,77.009712 
	C186.568481,65.047089 196.967300,53.138298 207.673737,41.096069 
z"/>
<path fill="#19194F" opacity="1.000000" stroke="none" 
	d="
M183.213577,84.772346 
	C191.334991,96.126434 199.536102,107.424614 207.551651,118.852943 
	C213.573486,127.438698 219.356949,136.191620 225.183197,145.357819 
	C225.119873,145.845505 224.858154,146.140915 224.510590,146.083649 
	C222.337555,144.684219 220.045395,143.683350 218.769775,141.939056 
	C213.985016,135.396423 209.499496,128.633087 204.964111,121.910446 
	C200.275909,114.961288 195.660156,107.963264 191.003998,100.629593 
	C190.008591,99.170853 189.021881,98.069122 188.030350,96.724426 
	C188.025543,96.481468 188.009933,95.995697 187.967438,95.681381 
	C187.289886,94.577179 186.654816,93.787308 186.011154,92.996552 
	C186.002579,92.995659 186.009933,92.979332 185.988525,92.618172 
	C184.939438,89.875458 183.911758,87.493904 182.966583,85.027466 
	C183.049072,84.942589 183.213577,84.772346 183.213577,84.772346 
z"/>
<path fill="#161449" opacity="1.000000" stroke="none" 
	d="
M54.919827,31.541492 
	C53.636421,28.243246 52.390270,24.504734 51.084305,20.132967 
	C51.024494,19.499714 51.031044,19.000540 51.222565,18.872204 
	C51.654587,18.546125 51.849751,18.310778 52.365257,18.013226 
	C53.352333,17.252724 53.973717,16.516827 54.595104,15.780929 
	C53.684074,15.205603 52.806046,14.207800 51.855877,14.133591 
	C48.920044,13.904295 45.956718,14.027103 43.004066,14.013180 
	C42.076687,13.700432 41.149303,13.387684 40.561295,12.751434 
	C50.250797,12.304519 59.600929,12.181103 68.951057,12.057688 
	C70.265877,14.916741 71.050957,17.460550 66.499435,18.006908 
	C56.695633,19.183739 55.142681,21.001955 54.919827,31.541492 
z"/>
<path fill="#0A0756" opacity="1.000000" stroke="none" 
	d="
M165.000000,99.000000 
	C165.188080,98.462212 165.376144,97.924423 166.127197,97.139526 
	C169.401550,96.347969 171.525803,95.406662 169.998779,91.997421 
	C171.648788,89.016258 173.962692,86.202522 174.768234,83.008392 
	C175.630569,79.589035 177.240021,80.237671 179.769196,80.922340 
	C180.684784,81.725983 181.220596,82.486191 181.852036,83.789108 
	C181.920410,84.535980 181.893158,84.740158 181.564377,85.052689 
	C181.177521,86.770096 181.092209,88.379135 180.949814,90.344757 
	C177.765121,93.734909 174.637512,96.768501 171.456573,99.853813 
	C172.133255,101.077400 172.939041,102.534431 173.744827,103.991470 
	C173.022827,104.643814 172.300827,105.296158 171.578827,105.948509 
	C170.815994,104.400749 170.333878,102.592026 169.208405,101.381409 
	C168.162201,100.256081 166.430115,99.768410 165.000000,99.000000 
z"/>
<path fill="#1D1C51" opacity="1.000000" stroke="none" 
	d="
M36.007286,53.992649 
	C39.579197,54.094971 39.201973,57.045410 39.967125,59.296589 
	C41.002956,62.344135 42.673885,65.208778 43.442753,68.308075 
	C45.999100,78.612740 54.126789,86.932625 53.977486,98.604118 
	C49.155762,88.129761 44.312813,77.231102 39.570835,66.288681 
	C38.225384,63.183964 37.174286,59.951687 35.991592,56.048431 
	C35.987972,54.885628 35.980957,54.452305 35.982269,54.012836 
	C35.990604,54.006695 36.007286,53.992649 36.007286,53.992649 
z"/>
<path fill="#8D8DB6" opacity="1.000000" stroke="none" 
	d="
M129.239746,101.961945 
	C129.164230,116.317719 129.088699,130.673492 128.724121,145.519928 
	C128.435059,146.010590 127.968300,146.150070 127.968292,146.150070 
	C127.645615,142.402634 127.009209,138.651505 127.053490,134.908401 
	C127.268181,116.761215 127.708817,98.616730 127.937813,80.469620 
	C127.963554,78.429771 127.158203,76.379448 126.399124,74.124420 
	C126.506668,72.394447 124.415421,68.937302 128.923462,71.146881 
	C129.136292,74.947266 129.178589,77.986855 129.165405,81.393211 
	C129.164459,82.497253 129.218979,83.234520 129.195740,84.408096 
	C129.159119,86.907631 129.200256,88.970840 129.173676,91.485252 
	C129.150558,95.278282 129.195145,98.620110 129.239746,101.961945 
z"/>
<path fill="#E7E7FF" opacity="1.000000" stroke="none" 
	d="
M154.220734,93.935837 
	C154.209991,79.307159 154.199265,64.678474 154.532990,49.620377 
	C155.212158,49.140667 155.546844,49.090382 155.881546,49.040096 
	C155.929611,64.752228 155.977676,80.464355 156.223511,96.610085 
	C156.421265,97.043686 156.221832,96.803040 155.797180,96.892761 
	C154.980637,96.959091 154.588776,96.935699 154.196899,96.912308 
	C154.166138,96.499313 154.135376,96.086319 154.302948,95.260742 
	C154.539017,94.731392 154.639679,94.585869 154.602066,94.503548 
	C154.508530,94.298958 154.351974,94.123184 154.220734,93.935837 
z"/>
<path fill="#D8DCF3" opacity="1.000000" stroke="none" 
	d="
M168.865326,31.417068 
	C165.811478,31.396179 162.757614,31.375292 158.921722,31.358795 
	C155.056564,31.453060 151.973450,31.542931 148.497314,31.494106 
	C146.731125,31.446554 145.357910,31.537697 143.547836,31.496593 
	C136.749023,31.458029 130.387085,31.551706 123.610626,31.509087 
	C121.464920,31.459124 119.733734,31.545460 117.586548,31.491611 
	C115.136299,31.267168 113.102043,31.182911 111.067795,31.098658 
	C111.998787,30.731052 112.929558,30.043667 113.860802,30.043024 
	C132.765610,30.029974 151.670471,30.095613 170.378479,30.598083 
	C169.742859,31.172796 169.304092,31.294931 168.865326,31.417068 
z"/>
<path fill="#8A88AC" opacity="1.000000" stroke="none" 
	d="
M113.041168,166.787704 
	C124.730278,166.828140 136.419388,166.868561 148.894196,166.896545 
	C150.110184,166.843369 150.540482,166.802643 150.970764,166.761902 
	C156.203949,166.836578 161.445877,167.096451 166.663940,166.850433 
	C167.905609,166.791885 169.067520,165.041397 170.244949,163.656677 
	C170.870865,164.650391 171.517944,166.056564 172.335510,167.833252 
	C151.580826,167.833252 131.529785,167.833252 111.609344,167.401611 
	C112.173691,166.909225 112.607430,166.848465 113.041168,166.787704 
z"/>
<path fill="#AAACC1" opacity="1.000000" stroke="none" 
	d="
M68.788452,11.647083 
	C59.600929,12.181103 50.250797,12.304519 40.440247,12.472090 
	C39.545216,12.525925 39.110611,12.535604 37.944740,12.520893 
	C35.119404,12.596546 33.025330,12.696588 30.931255,12.796629 
	C26.936491,12.713916 22.941727,12.631203 18.066216,12.532737 
	C13.830150,12.549293 10.474833,12.581602 6.738155,12.515594 
	C5.585172,12.304116 4.813551,12.190959 4.041930,12.077802 
	C4.657928,11.715186 5.274333,11.035120 5.889864,11.035912 
	C26.801912,11.062786 47.713879,11.154305 68.788452,11.647083 
z"/>
<path fill="#A5A6CB" opacity="1.000000" stroke="none" 
	d="
M155.784683,152.260056 
	C155.170609,151.301468 154.043777,149.931534 154.026596,148.547836 
	C153.865692,135.595154 153.852356,122.639847 153.931854,109.686127 
	C153.940231,108.321945 154.818878,106.963104 155.566986,105.333160 
	C155.563431,114.936440 155.142639,124.807213 155.065094,134.680664 
	C155.020172,140.398987 155.527756,146.121628 155.784683,152.260056 
z"/>
<path fill="#161449" opacity="1.000000" stroke="none" 
	d="
M7.119516,12.613913 
	C10.474833,12.581602 13.830150,12.549293 17.626083,12.665002 
	C17.386478,14.643481 16.706259,16.473942 15.969691,18.692862 
	C15.913345,19.081320 15.826997,19.162373 15.488584,19.051247 
	C13.069388,18.295378 10.988607,17.650635 8.907825,17.005894 
	C8.730374,16.988098 8.552922,16.970301 7.862869,16.718729 
	C6.543664,16.225031 5.737060,15.965106 4.930456,15.705181 
	C4.958541,15.336467 4.986626,14.967753 5.317163,14.280123 
	C6.119582,13.512109 6.619549,13.063010 7.119516,12.613913 
z"/>
<path fill="#8B8AAB" opacity="1.000000" stroke="none" 
	d="
M205.039810,166.877869 
	C217.044266,166.890305 229.048737,166.902740 241.782135,166.911331 
	C242.689728,166.884735 242.868347,166.861969 243.481781,166.902344 
	C246.605072,166.194473 251.653702,169.431351 250.916733,162.843307 
	C251.779724,164.250443 252.642700,165.657578 253.925339,167.748962 
	C235.632553,167.748962 218.456070,167.748962 201.541489,167.216400 
	C202.882202,166.748505 203.961014,166.813187 205.039810,166.877869 
z"/>
<path fill="#8B8CA4" opacity="1.000000" stroke="none" 
	d="
M258.872986,11.583706 
	C244.338181,12.007371 229.600311,12.071270 214.862686,12.037769 
	C212.493195,12.032383 210.492935,12.094756 210.367874,15.514187 
	C208.885941,13.062926 208.895340,10.985215 212.751923,11.000421 
	C228.057983,11.060768 243.363998,11.127359 258.872986,11.583706 
z"/>
<path fill="#2B2A5A" opacity="1.000000" stroke="none" 
	d="
M204.943832,166.528137 
	C203.961014,166.813187 202.882202,166.748505 201.410828,166.789261 
	C199.613007,161.188477 198.207779,155.482254 196.682571,149.401581 
	C198.340698,151.771011 200.398499,154.378998 201.816498,157.297836 
	C203.172958,160.089920 203.864227,163.205170 204.943832,166.528137 
z"/>
<path fill="#1F2047" opacity="1.000000" stroke="none" 
	d="
M250.665649,162.562653 
	C251.653702,169.431351 246.605072,166.194473 243.707489,166.664551 
	C244.000916,165.012772 244.503418,163.661942 245.005905,162.311096 
	C246.808792,162.301407 248.611679,162.291702 250.665649,162.562653 
z"/>
<path fill="#09094F" opacity="1.000000" stroke="none" 
	d="
M27.114037,35.033276 
	C25.798374,32.583942 24.482712,30.134611 23.340635,27.344528 
	C24.340807,26.667400 25.167391,26.331022 26.349585,26.113682 
	C27.460489,29.181917 28.215782,32.131115 28.660851,35.075340 
	C27.938429,35.058006 27.526232,35.045643 27.114037,35.033276 
z"/>
<path fill="#19194F" opacity="1.000000" stroke="none" 
	d="
M240.967392,160.639587 
	C236.271317,161.353561 233.515137,158.989273 232.113861,154.321503 
	C235.036606,156.068680 237.998352,158.173859 240.967392,160.639587 
z"/>
<path fill="#1D1C51" opacity="1.000000" stroke="none" 
	d="
M53.792969,99.330826 
	C59.373951,100.541306 58.648949,105.143967 58.984528,109.627754 
	C57.199131,106.575615 55.435818,103.099983 53.792969,99.330826 
z"/>
<path fill="#17164D" opacity="1.000000" stroke="none" 
	d="
M111.019821,31.487484 
	C113.102043,31.182911 115.136299,31.267168 117.588852,31.848366 
	C117.975426,33.304218 117.943695,34.263134 117.486389,35.218456 
	C115.085472,35.153011 113.110115,35.091156 111.134766,35.029305 
	C111.080452,33.978310 111.026146,32.927311 111.019821,31.487484 
z"/>
<path fill="#2B2A5A" opacity="1.000000" stroke="none" 
	d="
M179.959076,125.371666 
	C184.787369,126.761810 186.407761,131.004547 187.947876,135.697571 
	C186.570511,134.689240 184.993378,133.444427 183.819183,131.894363 
	C182.362823,129.971802 181.240128,127.796478 179.959076,125.371666 
z"/>
<path fill="#4A4B76" opacity="1.000000" stroke="none" 
	d="
M168.962479,31.740196 
	C169.304092,31.294931 169.742859,31.172796 170.521881,31.007599 
	C173.086365,34.507454 172.076599,36.466812 167.959946,36.952431 
	C166.392792,37.137291 164.835526,37.405952 163.053680,37.069542 
	C162.996643,36.121944 163.159683,35.741226 163.322723,35.360508 
	C164.772247,35.257206 166.365509,35.480206 167.617538,34.928604 
	C168.372482,34.595997 168.596848,33.059090 168.962479,31.740196 
z"/>
<path fill="#161449" opacity="1.000000" stroke="none" 
	d="
M25.993975,25.994642 
	C25.167391,26.331022 24.340807,26.667400 23.160664,27.028812 
	C21.884037,25.948439 20.960972,24.843035 19.976013,23.412739 
	C21.325211,23.066563 22.736301,23.045275 24.701643,23.312637 
	C25.501921,24.399075 25.747948,25.196859 25.993975,25.994642 
z"/>
<path fill="#19194F" opacity="1.000000" stroke="none" 
	d="
M232.069000,153.565613 
	C229.890305,152.062592 227.744232,150.203278 225.291138,147.855957 
	C224.942123,146.958923 224.900131,146.549927 224.858154,146.140915 
	C224.858154,146.140915 225.119873,145.845505 225.255219,145.699097 
	C227.627594,148.104919 229.864609,150.657135 232.069000,153.565613 
z"/>
<path fill="#19194F" opacity="1.000000" stroke="none" 
	d="
M244.703674,162.111084 
	C244.503418,163.661942 244.000916,165.012772 243.272705,166.601410 
	C242.868347,166.861969 242.689728,166.884735 242.246384,166.853668 
	C241.698746,165.116196 241.415833,163.432556 241.067200,161.388092 
	C242.134811,161.321884 243.268127,161.616486 244.703674,162.111084 
z"/>
<path fill="#1D1D46" opacity="1.000000" stroke="none" 
	d="
M113.060738,166.440536 
	C112.607430,166.848465 112.173691,166.909225 111.415298,167.018295 
	C110.435478,162.973755 112.441780,161.586212 116.651703,161.999054 
	C115.742172,163.356354 114.411240,164.724869 113.060738,166.440536 
z"/>
<path fill="#4A4B76" opacity="1.000000" stroke="none" 
	d="
M111.214516,35.342834 
	C113.110115,35.091156 115.085472,35.153011 117.708527,35.382149 
	C118.879227,35.715031 119.402222,35.880627 119.943024,36.299191 
	C119.990540,36.718594 120.020264,36.885021 120.049988,37.051449 
	C117.131416,36.586422 114.212837,36.121395 111.214516,35.342834 
z"/>
<path fill="#1D1C51" opacity="1.000000" stroke="none" 
	d="
M27.152359,35.393143 
	C27.526232,35.045643 27.938429,35.058006 28.776100,35.307892 
	C29.433434,36.009102 29.665291,36.472786 29.897148,36.936470 
	C30.238106,38.417881 30.579062,39.899292 30.635420,41.701141 
	C29.975542,42.024441 29.600266,42.027306 29.224987,42.030170 
	C28.546885,39.937786 27.868782,37.845398 27.152359,35.393143 
z"/>
<path fill="#161449" opacity="1.000000" stroke="none" 
	d="
M15.956516,19.040791 
	C19.260466,17.779175 20.386831,19.112871 19.935677,22.694958 
	C18.784166,22.382915 17.655367,21.683506 16.209894,20.621941 
	C15.871145,19.893980 15.849072,19.528177 15.826997,19.162373 
	C15.826997,19.162373 15.913345,19.081320 15.956516,19.040791 
z"/>
<path fill="#373861" opacity="1.000000" stroke="none" 
	d="
M15.488584,19.051247 
	C15.849072,19.528177 15.871145,19.893980 15.878707,20.534714 
	C13.636345,19.756701 11.408496,18.703756 9.044235,17.328354 
	C10.988607,17.650635 13.069388,18.295378 15.488584,19.051247 
z"/>
<path fill="#A3A4C9" opacity="1.000000" stroke="none" 
	d="
M155.970718,48.692692 
	C155.546844,49.090382 155.212158,49.140667 154.622147,49.168785 
	C154.656067,47.267727 154.945312,45.388836 155.530487,43.297073 
	C155.904251,44.837898 155.982071,46.591591 155.970718,48.692692 
z"/>
<path fill="#0C0A47" opacity="1.000000" stroke="none" 
	d="
M120.338760,37.169201 
	C120.020264,36.885021 119.990540,36.718594 120.194885,36.104103 
	C121.282364,35.104626 122.135780,34.553211 123.033981,34.293777 
	C123.396454,35.067341 123.714134,35.548923 124.031815,36.030506 
	C123.761833,36.526531 123.491844,37.022560 123.101105,37.774773 
	C122.196075,37.782959 121.411804,37.534958 120.338760,37.169201 
z"/>
<path fill="#242455" opacity="1.000000" stroke="none" 
	d="
M33.972797,48.999893 
	C34.005066,49.424301 34.037331,49.848709 34.046482,50.890968 
	C34.005005,51.708199 33.986645,51.907578 33.968288,52.106960 
	C32.968025,50.358158 31.967758,48.609352 30.943020,46.466667 
	C30.918545,46.072781 31.033833,45.970154 31.337627,46.054253 
	C32.418549,47.092197 33.195675,48.046043 33.972797,48.999893 
z"/>
<path fill="#17164D" opacity="1.000000" stroke="none" 
	d="
M96.132294,128.600403 
	C95.305832,127.129883 94.406487,125.307823 93.733231,123.232895 
	C94.659348,124.736305 95.359375,126.492599 96.132294,128.600403 
z"/>
<path fill="#8B8CA4" opacity="1.000000" stroke="none" 
	d="
M259.340210,16.909016 
	C258.899506,15.619590 258.775909,14.174313 258.844604,12.329015 
	C261.587097,13.235690 261.899170,14.830211 259.340210,16.909016 
z"/>
<path fill="#373861" opacity="1.000000" stroke="none" 
	d="
M4.711271,15.926461 
	C5.737060,15.965106 6.543664,16.225031 7.598521,16.677704 
	C6.728545,16.629549 5.610316,16.388645 4.711271,15.926461 
z"/>
<path fill="#242455" opacity="1.000000" stroke="none" 
	d="
M29.144981,42.374489 
	C29.600266,42.027306 29.975542,42.024441 30.631668,42.024715 
	C30.912514,42.027855 30.951216,42.048950 30.971237,42.453365 
	C31.005449,43.895237 31.019642,44.932697 31.033833,45.970154 
	C31.033833,45.970154 30.918545,46.072781 30.860237,46.124985 
	C30.222946,45.024399 29.643963,43.871605 29.144981,42.374489 
z"/>
<path fill="#2B2A5A" opacity="1.000000" stroke="none" 
	d="
M193.873444,144.371155 
	C194.583267,145.213226 195.337082,146.425217 196.028900,148.050385 
	C195.283737,147.222717 194.600586,145.981903 193.873444,144.371155 
z"/>
<path fill="#2B2A5A" opacity="1.000000" stroke="none" 
	d="
M187.965439,136.361710 
	C188.931000,137.134796 189.928131,138.242386 190.950317,139.700775 
	C189.982574,138.933121 188.989792,137.814667 187.965439,136.361710 
z"/>
<path fill="#0C0A47" opacity="1.000000" stroke="none" 
	d="
M163.107788,35.131905 
	C163.159683,35.741226 162.996643,36.121944 162.781738,36.809723 
	C162.729889,37.116783 162.474075,37.134903 162.347214,37.146221 
	C161.922989,36.478771 161.625626,35.800003 161.328262,35.121239 
	C161.849792,35.048592 162.371323,34.975945 163.107788,35.131905 
z"/>
<path fill="#2B2A5A" opacity="1.000000" stroke="none" 
	d="
M190.960388,140.357361 
	C191.633392,140.855362 192.327499,141.689911 193.000778,142.899597 
	C192.313797,142.414444 191.647644,141.554169 190.960388,140.357361 
z"/>
<path fill="#373861" opacity="1.000000" stroke="none" 
	d="
M6.738154,12.515593 
	C6.619549,13.063010 6.119582,13.512109 5.360470,14.006166 
	C4.758995,13.584479 4.416665,13.117832 4.058132,12.364492 
	C4.813551,12.190959 5.585172,12.304116 6.738154,12.515593 
z"/>
<path fill="#1D1C51" opacity="1.000000" stroke="none" 
	d="
M33.996918,52.335167 
	C33.986645,51.907578 34.005005,51.708199 34.060089,51.209908 
	C34.722351,51.713390 35.347889,52.515781 35.990356,53.655411 
	C36.007286,53.992649 35.990604,54.006695 35.742218,53.893044 
	C35.021820,53.526386 34.549809,53.273388 34.077801,53.020386 
	C34.077801,53.020386 34.025547,52.563374 33.996918,52.335167 
z"/>
<path fill="#242455" opacity="1.000000" stroke="none" 
	d="
M34.053802,53.343975 
	C34.549809,53.273388 35.021820,53.526386 35.733883,53.899185 
	C35.980957,54.452305 35.987972,54.885628 35.998528,55.643700 
	C35.344646,55.201485 34.687225,54.434525 34.053802,53.343975 
z"/>
<path fill="#BFBFDC" opacity="1.000000" stroke="none" 
	d="
M127.615395,48.215439 
	C127.967049,49.143703 127.975014,50.153629 127.965607,51.542809 
	C127.722717,50.713737 127.497208,49.505421 127.615395,48.215439 
z"/>
<path fill="#1C1C4E" opacity="1.000000" stroke="none" 
	d="
M127.990570,146.453918 
	C127.968300,146.150070 128.435059,146.010590 128.677246,145.983826 
	C128.840149,146.590622 128.760895,147.224167 128.430084,147.910736 
	C128.123306,147.561768 128.068069,147.159760 127.990570,146.453918 
z"/>
<path fill="#2B2A5A" opacity="1.000000" stroke="none" 
	d="
M179.056000,123.323517 
	C179.345795,123.504799 179.646179,123.981483 179.959641,124.749329 
	C179.670685,124.566620 179.368637,124.092766 179.056000,123.323517 
z"/>
<path fill="#8B8CA4" opacity="1.000000" stroke="none" 
	d="
M258.335144,17.853992 
	C258.238403,17.574177 258.376831,17.242596 258.793152,16.956367 
	C259.008362,17.333742 258.841431,17.600576 258.335144,17.853992 
z"/>
<path fill="#19194F" opacity="1.000000" stroke="none" 
	d="
M181.865906,84.944328 
	C181.893158,84.740158 181.920410,84.535980 182.008972,84.027618 
	C182.352066,83.929367 182.633850,84.135300 183.064606,84.556793 
	C183.213577,84.772346 183.049072,84.942589 182.712494,84.985977 
	C182.205917,85.001022 182.035904,84.972672 181.865906,84.944328 
z"/>
<path fill="#080756" opacity="1.000000" stroke="none" 
	d="
M30.276815,36.958176 
	C29.665291,36.472786 29.433434,36.009102 29.086327,35.312866 
	C28.215782,32.131115 27.460489,29.181917 26.349585,26.113682 
	C25.747948,25.196859 25.501921,24.399075 25.123531,23.315289 
	C23.188431,19.674980 25.091602,17.961828 27.946363,17.167393 
	C30.895824,16.346601 34.888077,19.806416 34.957767,23.130106 
	C35.070053,28.485348 34.987923,33.844666 34.987923,38.919521 
	C33.725609,38.354252 32.191048,37.667068 30.276815,36.958176 
z"/>
<path fill="#0A0656" opacity="1.000000" stroke="none" 
	d="
M45.594643,65.507706 
	C44.763546,64.012367 43.621944,62.886784 43.557236,61.702366 
	C43.466805,60.047142 44.179928,58.348022 44.549232,56.667683 
	C45.995529,57.382786 47.671097,57.834839 48.847214,58.859924 
	C53.220398,62.671513 53.419197,67.846466 52.904434,73.089806 
	C52.813152,74.019630 51.827309,74.861626 51.254547,75.744179 
	C50.435516,75.086182 49.263550,74.593399 48.863689,73.739182 
	C47.668438,71.185791 46.775570,68.490868 45.594643,65.507706 
z"/>
<path fill="#090756" opacity="1.000000" stroke="none" 
	d="
M51.031044,19.000540 
	C51.031044,19.000540 51.024494,19.499714 51.018524,19.749218 
	C48.780109,19.979435 46.494671,20.258633 44.327126,19.873814 
	C40.698544,19.229607 40.781727,17.143007 42.921738,14.342943 
	C45.956718,14.027103 48.920044,13.904295 51.855877,14.133591 
	C52.806046,14.207800 53.684074,15.205603 54.595104,15.780929 
	C53.973717,16.516827 53.352333,17.252724 52.167892,18.134304 
	C51.358334,18.476171 51.167068,18.716356 51.031044,19.000540 
z"/>
<path fill="#090757" opacity="1.000000" stroke="none" 
	d="
M93.340607,134.021576 
	C96.140648,139.062241 95.554581,140.688873 90.106796,143.737778 
	C86.983757,141.111633 85.943069,138.143204 88.146484,134.286453 
	C89.675949,131.609390 91.285515,132.804718 93.340607,134.021576 
z"/>
<path fill="#080756" opacity="1.000000" stroke="none" 
	d="
M34.936474,44.029770 
	C36.677761,43.292259 38.419048,42.554749 40.592056,41.634384 
	C40.592056,44.644398 40.592056,47.416897 40.592056,50.869499 
	C38.323009,49.768475 36.529175,48.898041 34.504585,47.689339 
	C34.494713,46.243969 34.715591,45.136871 34.936474,44.029770 
z"/>
<path fill="#161449" opacity="1.000000" stroke="none" 
	d="
M30.989885,13.110326 
	C33.025330,12.696588 35.119404,12.596546 37.642143,12.644085 
	C35.899311,16.989054 34.784573,17.089436 30.989885,13.110326 
z"/>
<path fill="#1D1C51" opacity="1.000000" stroke="none" 
	d="
M34.659264,43.868637 
	C34.715591,45.136871 34.494713,46.243969 34.143074,47.668030 
	C34.005447,48.154152 33.998581,48.323318 33.982258,48.746185 
	C33.195675,48.046043 32.418549,47.092197 31.337627,46.054253 
	C31.019642,44.932697 31.005449,43.895237 30.983950,42.471016 
	C32.111778,42.625332 33.246918,43.166420 34.659264,43.868637 
z"/>
<path fill="#080753" opacity="1.000000" stroke="none" 
	d="
M124.413177,36.029411 
	C123.714134,35.548923 123.396454,35.067341 123.242546,34.123390 
	C123.612595,32.989140 123.818871,32.317265 124.025146,31.645386 
	C130.387085,31.551706 136.749023,31.458029 143.629364,31.871908 
	C146.121506,34.626068 147.793594,34.956646 148.890320,31.632803 
	C151.973450,31.542931 155.056564,31.453060 158.559814,31.493355 
	C158.973801,31.925814 158.974991,32.228077 158.684296,32.828094 
	C157.925964,33.750893 157.466858,34.375908 157.007736,35.000923 
	C155.803711,36.372272 154.592728,37.737606 153.398438,39.117382 
	C152.747589,39.869308 151.590683,40.631565 151.569931,41.413250 
	C151.258835,53.141022 146.344833,64.671059 150.002792,76.570763 
	C150.291779,77.510826 150.762100,78.626671 150.507278,79.466309 
	C148.148102,87.239578 148.377899,94.716209 151.599152,102.331444 
	C152.484589,104.424683 150.988373,107.484375 150.725098,110.114616 
	C150.374557,113.616501 150.174835,117.133232 149.884628,120.641457 
	C149.611771,123.940102 149.010773,127.241745 149.075043,130.531891 
	C149.210709,137.475067 149.516861,144.426926 150.141251,151.340179 
	C150.299850,153.096222 151.721146,154.871521 152.895248,156.378555 
	C157.052002,161.714066 156.897110,162.914566 151.095245,166.449951 
	C150.540482,166.802643 150.110184,166.843369 149.360336,166.824188 
	C148.794174,163.268005 146.197220,163.193649 143.629379,163.000732 
	C138.692474,162.629761 133.759232,162.210114 128.254074,161.764511 
	C128.830078,160.094986 128.894653,158.539841 129.704483,157.795914 
	C133.330124,154.465286 132.951416,150.040558 132.914688,145.931396 
	C132.794418,132.471909 132.373444,119.013893 131.909576,105.560783 
	C131.868729,104.375549 130.672470,103.230148 129.626312,102.014099 
	C129.195145,98.620110 129.150558,95.278282 129.531311,91.473465 
	C131.164246,89.990997 132.371811,88.971504 133.579391,87.952011 
	C132.144104,86.625275 130.708801,85.298531 129.273514,83.971786 
	C129.218979,83.234520 129.164459,82.497253 129.512207,81.364716 
	C134.814255,77.577934 134.862717,73.909264 130.046280,70.990929 
	C129.846024,69.867905 129.955246,68.549622 129.391403,67.655983 
	C127.067406,63.972652 127.664375,60.514828 129.629379,56.949425 
	C132.393875,51.933388 133.108841,46.444691 130.978897,41.245251 
	C130.072662,39.033035 126.924072,37.739403 124.413177,36.029411 
z"/>
<path fill="#080752" opacity="1.000000" stroke="none" 
	d="
M224.510590,146.083649 
	C224.900131,146.549927 224.942123,146.958923 225.001068,147.676636 
	C225.311752,149.748184 225.313690,151.633392 225.986298,153.237335 
	C226.585190,154.665497 228.126373,155.673676 228.883926,157.067154 
	C229.635864,158.450317 229.928848,160.082993 230.693542,162.439590 
	C226.831406,162.439590 223.363861,162.412933 219.896912,162.447510 
	C216.780838,162.478592 213.628281,162.304153 210.560104,162.721893 
	C207.461151,163.143829 205.842575,162.667023 204.725784,159.253189 
	C202.116776,151.277969 198.896957,143.500900 195.843414,135.675217 
	C195.508728,134.817444 194.790497,133.917374 194.004135,133.458618 
	C188.470001,130.229950 185.185333,125.173210 181.982239,119.833488 
	C180.463531,117.301712 177.396210,115.751793 175.366165,113.459724 
	C173.099487,110.900490 171.200333,108.013733 169.166870,105.250656 
	C167.807785,103.403900 166.493454,101.524200 165.079544,99.329620 
	C166.430115,99.768410 168.162201,100.256081 169.208405,101.381409 
	C170.333878,102.592026 170.815994,104.400749 171.578827,105.948509 
	C172.300827,105.296158 173.022827,104.643814 173.744827,103.991470 
	C172.939041,102.534431 172.133255,101.077400 171.456573,99.853813 
	C174.637512,96.768501 177.765121,93.734909 181.271988,90.423927 
	C183.104141,91.090797 184.557037,92.035065 186.009933,92.979332 
	C186.009933,92.979332 186.002579,92.995659 186.019745,93.339264 
	C186.694595,94.453812 187.352264,95.224754 188.009933,95.995697 
	C188.009933,95.995697 188.025543,96.481468 188.032516,97.086151 
	C189.030563,98.789421 190.021637,99.888016 191.012711,100.986610 
	C195.660156,107.963264 200.275909,114.961288 204.964111,121.910446 
	C209.499496,128.633087 213.985016,135.396423 218.769775,141.939056 
	C220.045395,143.683350 222.337555,144.684219 224.510590,146.083649 
z"/>
<path fill="#080752" opacity="1.000000" stroke="none" 
	d="
M169.685989,92.145676 
	C171.525803,95.406662 169.401550,96.347969 166.341431,96.944839 
	C167.119522,95.429474 168.246353,93.861702 169.685989,92.145676 
z"/>
<path fill="#A3A4C9" opacity="1.000000" stroke="none" 
	d="
M154.116806,97.274368 
	C154.588776,96.935699 154.980637,96.959091 155.667740,96.980316 
	C155.847733,97.556808 155.732483,98.135483 155.617249,98.714149 
	C155.090408,98.354912 154.563553,97.995667 154.116806,97.274368 
z"/>
<path fill="#0C0A47" opacity="1.000000" stroke="none" 
	d="
M157.312164,34.933052 
	C157.466858,34.375908 157.925964,33.750893 158.688202,33.054771 
	C158.533096,33.610836 158.074829,34.238010 157.312164,34.933052 
z"/>
<path fill="#A3A4C9" opacity="1.000000" stroke="none" 
	d="
M154.110748,94.213776 
	C154.351974,94.123184 154.508530,94.298958 154.602066,94.503548 
	C154.639679,94.585869 154.539017,94.731392 154.349152,94.952271 
	C154.131607,94.868164 154.066208,94.679939 154.110748,94.213776 
z"/>
<path fill="#D8DCF3" opacity="1.000000" stroke="none" 
	d="
M165.489594,33.508945 
	C165.505219,33.522778 165.473969,33.495113 165.489594,33.508945 
z"/>
<path fill="#100F4A" opacity="1.000000" stroke="none" 
	d="
M129.844070,70.999191 
	C134.862717,73.909264 134.814255,77.577934 129.567673,80.997940 
	C129.178589,77.986855 129.136292,74.947266 129.165558,71.457985 
	C129.237106,71.008286 129.641861,71.007454 129.844070,70.999191 
z"/>
<path fill="#090752" opacity="1.000000" stroke="none" 
	d="
M233.000671,13.982950 
	C237.745010,13.982917 241.995758,13.982917 247.333771,13.982917 
	C244.117432,20.120777 238.824295,19.744762 234.585739,20.737495 
	C228.562637,22.148203 223.213409,20.610207 219.160065,13.982985 
	C224.052444,13.982985 228.279755,13.982985 233.000671,13.982950 
z"/>
<path fill="#100F4A" opacity="1.000000" stroke="none" 
	d="
M185.988525,92.618172 
	C184.557037,92.035065 183.104141,91.090797 181.329071,90.067352 
	C181.092209,88.379135 181.177521,86.770096 181.564377,85.052689 
	C182.035904,84.972672 182.205917,85.001022 182.630005,85.070862 
	C183.911758,87.493904 184.939438,89.875458 185.988525,92.618172 
z"/>
<path fill="#100F4A" opacity="1.000000" stroke="none" 
	d="
M191.003998,100.629593 
	C190.021637,99.888016 189.030563,98.789421 188.037323,97.329109 
	C189.021881,98.069122 190.008591,99.170853 191.003998,100.629593 
z"/>
<path fill="#100F4A" opacity="1.000000" stroke="none" 
	d="
M187.967438,95.681381 
	C187.352264,95.224754 186.694595,94.453812 186.028320,93.340149 
	C186.654816,93.787308 187.289886,94.577179 187.967438,95.681381 
z"/>
<path fill="#09094F" opacity="1.000000" stroke="none" 
	d="
M51.222565,18.872204 
	C51.167068,18.716356 51.358334,18.476171 51.802208,18.158905 
	C51.849751,18.310778 51.654587,18.546125 51.222565,18.872204 
z"/>
<path fill="#100F4A" opacity="1.000000" stroke="none" 
	d="
M129.195740,84.408096 
	C130.708801,85.298531 132.144104,86.625275 133.579391,87.952011 
	C132.371811,88.971504 131.164246,89.990997 129.599030,91.022278 
	C129.200256,88.970840 129.159119,86.907631 129.195740,84.408096 
z"/>
<path fill="#100F4A" opacity="1.000000" stroke="none" 
	d="
M123.610626,31.509087 
	C123.818871,32.317265 123.612595,32.989140 123.197754,33.831406 
	C122.135780,34.553211 121.282364,35.104626 120.177086,35.851128 
	C119.402222,35.880627 118.879227,35.715031 118.134094,35.385742 
	C117.943695,34.263134 117.975426,33.304218 118.004852,31.988552 
	C119.733734,31.545460 121.464920,31.459124 123.610626,31.509087 
z"/>
<path fill="#100F4A" opacity="1.000000" stroke="none" 
	d="
M148.497314,31.494106 
	C147.793594,34.956646 146.121506,34.626068 144.066238,32.004150 
	C145.357910,31.537697 146.731125,31.446554 148.497314,31.494106 
z"/>
</svg>